<?xml version="1.0" encoding="utf-8"?>
<!-- Generator: Adobe Illustrator 12.0.0, SVG Export Plug-In . SVG Version: 6.00 Build 51448)  -->
<!DOCTYPE svg PUBLIC "-//W3C//DTD SVG 1.1//EN" "http://www.w3.org/Graphics/SVG/1.1/DTD/svg11.dtd" [
	<!ENTITY ns_svg "http://www.w3.org/2000/svg">
	<!ENTITY ns_xlink "http://www.w3.org/1999/xlink">
]>
<svg  version="1.1" id="Layer_1" xmlns="&ns_svg;" xmlns:xlink="&ns_xlink;" width="200" height="44.872" viewBox="0 0 200 44.872"
	 overflow="visible" enable-background="new 0 0 200 44.872" xml:space="preserve">
<g>
	<g>
		<g>
			<path d="M3.694,8.243h6.339l8.236,22.398h0.086l8.279-22.398h6.123v27.549h-4.269V11.995h-0.087l-8.71,23.797H16.07l-8.71-23.797
				H7.273v23.797H3.694V8.243z"/>
			<path d="M35.959,26.288c0-6.429,3.019-9.94,9.055-9.94c6.037,0,9.099,3.512,9.099,9.94s-3.062,9.942-9.099,9.942
				C38.979,36.23,35.959,32.717,35.959,26.288z M45.015,34.554c3.88,0,4.356-4.792,4.356-8.266c0-3.473-0.477-8.266-4.356-8.266
				c-3.837,0-4.312,4.793-4.312,8.266C40.703,29.762,41.178,34.554,45.015,34.554z"/>
			<path d="M57.488,16.787h4.356v4.511h0.085c0.69-1.397,2.674-4.95,7.201-4.95c3.623,0,5.174,2.794,5.174,5.548v13.896H69.95
				V23.893c0-2.395-0.389-4.551-2.588-4.551c-4.312,0-5.518,6.228-5.518,8.584v7.866h-4.356V16.787z"/>
			<path d="M89.926,35.95c-0.863,0.199-2.027,0.28-3.019,0.28c-4.096,0-6.468-1.159-6.468-4.831V18.861h-3.277v-2.074h3.277v-4.471
				l4.354-2.437v6.908h5.605v2.074h-5.605v10.94c0,2.796,0.303,4.152,3.105,4.152c0.691,0,1.422-0.081,2.027-0.318V35.95z"/>
			<path d="M93.203,16.787h4.356v4.83h0.086c1.38-2.556,2.888-4.989,6.64-5.27v4.192c-4.182,0.119-6.726,1.438-6.726,6.547v8.705
				h-4.356V16.787z"/>
			<path d="M122.049,35.152c-1.811,0.679-3.406,1.078-5.992,1.078c-5.691,0-10.264-3.114-10.264-10.779
				c0-5.271,2.286-9.104,8.753-9.104c6.643,0,7.893,4.112,7.893,7.786h-12.29c0,3.752,1.811,9.979,7.976,9.979
				c1.338,0,2.63-0.24,3.925-0.8V35.152z M118.17,22.296c0-1.476-0.562-4.273-3.796-4.273c-3.363,0-4.009,3.196-4.097,4.273H118.17z
				 M115.049,8.26h4.57l-4.209,5.213h-3.237L115.049,8.26z"/>
			<path d="M136.322,33.156h-0.088c-0.689,1.116-2.5,3.074-5.777,3.074c-3.233,0-5.605-2.117-5.605-4.752
				c0-5.868,8.754-6.148,11.471-6.268v-1.676c0-2.078,0-5.513-2.889-5.513c-2.674,0-3.149,1.918-3.321,4.155h-4.57
				c0.216-2.836,1.422-5.83,7.892-5.83c6.684,0,7.244,3.474,7.244,7.188v12.257h-4.355V33.156z M136.322,26.887
				c-1.812,0.121-6.729,0.48-6.729,3.992c0,1.719,1.079,2.836,2.502,2.836c1.51,0,4.227-1.357,4.227-4.593V26.887z"/>
			<path d="M145.184,8.243h4.355v27.549h-4.355V8.243z"/>
		</g>
	</g>
	<path fill="#E33131" d="M177.277,4.535c-1.331-1.983-3.513-3.216-5.736-3.216c-3.811,0-6.797,3.026-6.797,6.892
		c0,0.37,0.078,0.889,0.223,1.536c-0.351-0.073-1.006-0.197-1.547-0.197c-3.863,0-6.892,2.97-6.892,6.766
		c0,2.233,1.246,4.417,3.249,5.751c-2.022,1.354-3.234,3.46-3.234,5.676c0,3.749,3.094,6.798,6.895,6.798
		c0.466,0,1.029-0.108,1.519-0.216c-0.137,0.62-0.212,1.143-0.212,1.521c0,3.864,2.986,6.891,6.797,6.891
		c2.258,0,4.365-1.177,5.686-3.15c1.271,1.888,3.554,3.15,5.742,3.15c3.798,0,6.768-3.026,6.768-6.891
		c0-0.502-0.108-1.108-0.196-1.521c0.647,0.138,1.164,0.216,1.534,0.216c3.801,0,6.891-3.049,6.891-6.798
		c0-2.236-1.204-4.408-3.146-5.717c1.942-1.308,3.146-3.474,3.146-5.714c0-3.729-3.105-6.766-6.923-6.766
		c-0.478,0-1.055,0.121-1.507,0.219c0.075-0.353,0.201-1.02,0.201-1.554c0-3.866-2.97-6.892-6.768-6.892
		C180.759,1.319,178.603,2.551,177.277,4.535z M168.335,11.437l-0.002-0.001c-0.331-0.312-1.405-1.472-1.408-3.303
		c0-0.004,0-0.008,0-0.01c0-2.833,2.382-4.592,4.593-4.597c1.23-0.002,2.386,0.475,3.26,1.345c0.872,0.868,1.348,2.03,1.35,3.271
		v10.681c-0.002,1.319-1.173,2.052-2,2.052h-10.729c-1.215,0.002-2.41-0.491-3.286-1.362c-0.6-0.598-1.316-1.645-1.319-3.227
		c-0.001-1.218,0.491-2.412,1.357-3.277c0.852-0.853,1.989-1.325,3.206-1.326c1.619-0.001,2.708,0.754,3.335,1.387
		c0,0,0.405,0.404,0.541,0.533c-0.091,0.239-0.182,0.55-0.182,0.98c0,1.529,1.261,2.778,2.809,2.785
		c0.747,0.004,1.412-0.268,1.931-0.781c0.527-0.526,0.841-1.277,0.841-2.011c0.002-0.714-0.321-1.481-0.843-2.006
		c-0.516-0.512-1.188-0.782-1.951-0.78c-0.417,0.001-0.767,0.122-0.953,0.184C168.789,11.882,168.335,11.437,168.335,11.437z
		 M178.395,8.131c-0.004-1.213,0.476-2.412,1.347-3.287c0.598-0.6,1.648-1.317,3.227-1.319c1.218-0.001,2.416,0.493,3.279,1.357
		c0.853,0.852,1.323,1.991,1.325,3.208c0,0.002,0,0.005,0,0.007c0,1.617-0.751,2.702-1.385,3.327c0,0.003-0.405,0.408-0.536,0.54
		c-0.239-0.088-0.55-0.179-0.979-0.18c-1.528-0.001-2.776,1.26-2.782,2.809c-0.003,0.746,0.265,1.411,0.779,1.927
		c0.524,0.527,1.274,0.843,2.01,0.845c0.002,0,0.003,0,0.006,0c0.713,0,1.476-0.326,2-0.849c0.511-0.508,0.778-1.179,0.778-1.939
		c0-0.003,0-0.005,0-0.006c0-0.416-0.118-0.769-0.181-0.952c0.092-0.095,0.538-0.553,0.538-0.553c0.314-0.332,1.472-1.407,3.3-1.411
		c2.841-0.004,4.604,2.382,4.607,4.595c0.002,1.229-0.476,2.389-1.345,3.263c-0.867,0.869-2.028,1.36-3.269,1.362h-10.68
		c-1.321-0.002-2.04-1.19-2.041-2.021l0,0V8.131z M160.14,31.065c-0.874-0.87-1.374-2.064-1.378-3.272l0,0
		c-0.003-1.23,0.475-2.389,1.347-3.263c0.867-0.871,2.025-1.369,3.267-1.372h10.684c1.321,0.003,2.066,1.2,2.068,2.027V35.91
		c0.001,1.216-0.507,2.412-1.38,3.288c-0.599,0.601-1.645,1.316-3.225,1.317c-2.535,0.005-4.602-2.044-4.605-4.563
		c0-0.003,0-0.004,0-0.008c0-1.612,0.755-2.699,1.386-3.328c0.002,0,0.405-0.405,0.535-0.539c0.242,0.089,0.55,0.179,0.979,0.181
		c1.533,0,2.778-1.259,2.785-2.811c0.001-0.744-0.267-1.407-0.778-1.925c-0.524-0.526-1.275-0.842-2.013-0.844
		c-0.711,0-1.481,0.322-2.005,0.845c-0.51,0.513-0.782,1.184-0.782,1.943c0,0.001,0,0.004,0,0.005c0,0.416,0.12,0.77,0.187,0.95
		c-0.096,0.098-0.541,0.554-0.541,0.554c-0.311,0.333-1.475,1.41-3.303,1.411C162.143,32.391,160.997,31.919,160.14,31.065z
		 M179.779,39.154c-0.872-0.866-1.384-2.027-1.385-3.268V25.204c0.001-1.32,1.216-2.044,2.045-2.046h10.72
		c2.215-0.002,4.605,1.741,4.61,4.582c0.002,2.534-2.046,4.601-4.568,4.604c-1.62,0.002-2.707-0.751-3.332-1.385
		c-0.002-0.001-0.408-0.405-0.538-0.538c0.087-0.24,0.178-0.548,0.178-0.978v-0.003c0-1.528-1.26-2.776-2.81-2.781
		c-0.745-0.003-1.408,0.267-1.923,0.777c-0.526,0.524-0.844,1.279-0.848,2.015c0,0.712,0.327,1.481,0.849,2.005
		c0.512,0.512,1.184,0.782,1.947,0.779c0.419,0,0.769-0.118,0.95-0.183c0.096,0.094,0.552,0.538,0.552,0.538
		c0.332,0.312,1.408,1.472,1.412,3.302c0,0.003,0,0.003,0,0.007c0,2.836-2.387,4.598-4.599,4.601
		C181.813,40.505,180.652,40.025,179.779,39.154z"/>
</g>
</svg>
